<?xml version="1.0" encoding="utf-8"?>
<!-- Generator: Adobe Illustrator 21.0.2, SVG Export Plug-In . SVG Version: 6.00 Build 0)  -->
<svg version="1.1" id="Layer_1" xmlns="http://www.w3.org/2000/svg" xmlns:xlink="http://www.w3.org/1999/xlink" x="0px" y="0px"
	 viewBox="0 0 170.4 170.3" style="enable-background:new 0 0 170.4 170.3;" xml:space="preserve">
<style type="text/css">
	.st0{fill:#FFFFFF;}
	.st1{fill:#231F20;}
	.st2{fill:#B10836;}
</style>
<title>ASPI CMYK_EPS_withWhiteBorder</title>
<g id="Layer_2">
	<rect class="st0" width="170.4" height="170.2"/>
</g>
<polygon class="st1" points="0.2,55.5 170.3,55.5 170.3,170.3 0.2,170.3 "/>
<polygon class="st2" points="0.3,0 170.4,0 170.4,51.1 0.3,51.1 "/>
<path class="st0" d="M29.4,33l3.6,8.6h3.7L23.2,10l-14,31.6h3.6l3.6-8.6C16.4,33,29.4,33,29.4,33z M28.1,29.9H17.9L23,17.8
	L28.1,29.9L28.1,29.9z"/>
<path class="st0" d="M79.6,15.6c-1.5-2.9-4.5-4.7-7.8-4.7c-4.5,0-8.4,3-8.4,7.7c0,4.3,3,6.1,6.6,7.7l1.8,0.8c2.8,1.3,5.6,2.5,5.6,6
	c-0.1,3.3-2.9,6-6.2,5.9c-3.1-0.1-5.7-2.5-6-5.6l-3.3,0.9c1,5.2,5.9,8.6,11.1,7.6c4.4-0.8,7.7-4.6,7.8-9.2c0-4.8-3.3-6.8-7.2-8.5
	l-2-0.9c-2-0.9-4.7-2.1-4.7-4.7c0.1-2.6,2.2-4.7,4.9-4.7h0.1c2.6,0,4,1.2,5.2,3.3L79.6,15.6L79.6,15.6z"/>
<path class="st0" d="M112.1,28.4h2.4c2.5,0,5.1-0.3,7.2-2c1.9-1.6,2.9-4,2.9-6.5c0.1-2.7-1.2-5.3-3.4-6.9c-2.2-1.5-4.9-1.6-7.5-1.6
	h-5v30.2h3.4V28.4L112.1,28.4z M112.1,14.5h1.2c3.9,0,7.9,0.4,7.9,5.3c0,4.3-3.2,5.4-6.9,5.4h-2.2V14.5L112.1,14.5z"/>
<polygon class="st0" points="155.5,11.4 152.1,11.4 152.1,41.6 155.5,41.6 "/>
<g>
	<path class="st0" d="M40.9,149.4c0.1-1.1,0.9-1.9,2-1.9c1,0,1.9,0.5,2.5,1.4l1.5-2.2c-0.1-0.1-0.3-0.3-0.4-0.4h-0.1
		c-1.2-0.9-2.6-1.4-4.1-1.4c-1.3,0-2.6,0.5-3.5,1.5l0,0c-0.9,1-1.4,2.2-1.3,3.5c0,2.6,1.6,3.7,3.7,4.5c1.3,0.5,2.9,1,2.9,2.7
		c0.1,1.2-0.8,2.3-2,2.4H42c-1.4-0.1-2.6-1.1-3-2.4l-2.1,2c1,1.9,2.9,3.2,5.1,3.2c3.4,0,5.5-2.4,5.5-5.7
		C47.5,151,40.9,152.2,40.9,149.4z"/>
	<polygon class="st0" points="13.7,145.3 10.5,145.3 10.5,146.3 10.5,146.3 10.5,161.9 13.8,161.9 13.8,146.3 13.7,146.3 	"/>
	<polygon class="st0" points="60.3,145.3 50.4,145.3 50.4,146.3 50.4,146.3 50.4,148.1 53.8,148.1 53.8,161.9 57,161.9 57,148.1 
		60.3,148.1 60.3,146.3 60.3,146.3 	"/>
	<polygon class="st0" points="32.9,145.3 29.6,145.3 29.6,146.3 29.7,146.3 29.7,156.4 22,146.3 22,146.3 20.9,144.8 18.6,144.8 
		18.6,146.3 18.5,146.3 18.5,161.9 21.8,161.9 21.8,150.6 30.5,162.2 32.9,162.2 32.9,146.3 32.9,146.3 	"/>
	<polygon class="st0" points="67.2,145.3 63.9,145.3 63.9,146.3 64,146.3 64,161.9 67.2,161.9 67.2,146.3 67.2,146.3 	"/>
	<path class="st0" d="M32,117.7c-4.8,0-8.2,4.1-8.2,8.7c0,1.3,0.3,2.6,0.8,3.9c1.7,4.1,6.4,6,10.5,4.3c1.9-0.8,3.4-2.3,4.3-4.3l0,0
		c0.5-1.2,0.8-2.5,0.8-3.9C40.2,121.8,36.8,117.7,32,117.7z M35.3,130.3L35.3,130.3c-1.3,1.8-3.8,2.3-5.6,1.1
		c-0.4-0.3-0.8-0.6-1.2-1.1c-0.9-1.2-1.4-2.5-1.4-4c0-2.7,2-5.4,4.9-5.4s4.9,2.7,4.9,5.4C36.8,127.8,36.2,129.2,35.3,130.3z"/>
	<polygon class="st0" points="80.7,145.3 70.8,145.3 70.8,146.3 70.8,146.3 70.8,148.1 74.1,148.1 74.1,161.9 77.4,161.9 
		77.4,148.1 80.7,148.1 80.7,146.3 80.7,146.3 	"/>
	<path class="st0" d="M70.9,120.8c1.4,0,2.8,0.7,3.6,1.8v-3.9c-1.1-0.6-2.4-1-3.7-1c-4.9,0-8.2,4.2-8.2,8.9c0,1.3,0.3,2.5,0.8,3.7
		c1.2,3,4.1,4.9,7.3,4.9c1.3,0,2.6-0.4,3.8-1v-3.9c-0.9,1.1-2.3,1.7-3.7,1.8c-1.4,0-2.8-0.7-3.6-1.8l0,0c-0.8-1.1-1.3-2.4-1.2-3.8
		C66,123.7,67.8,120.8,70.9,120.8z"/>
	<polygon class="st0" points="110,145.3 100.1,145.3 100.1,146.3 100.1,146.3 100.1,148.1 103.4,148.1 103.4,161.9 106.6,161.9 
		106.6,148.1 110,148.1 110,146.3 110,146.3 	"/>
	<polygon class="st0" points="122.1,145.3 113.6,145.3 113.6,146.3 113.6,146.3 113.6,161.9 122.2,161.9 122.2,159.1 116.8,159.1 
		116.8,154.6 122,154.6 122,151.8 116.8,151.8 116.8,148.1 122.2,148.1 122.2,146.3 122.1,146.3 	"/>
	<path class="st0" d="M96.5,145.3h-3.2v1l0,0v8.2c0,2-0.2,4.9-2.9,4.9s-2.9-2.9-2.9-4.9v-8.2l0,0v-1h-3.2v1l0,0v8.9
		c0,4,1.7,7.1,6.2,7.1s6.2-3.1,6.2-7.1v-8.9l0,0v-1H96.5z"/>
	<polygon class="st0" points="85.9,134.8 85.9,127.2 91.1,118.2 87.4,118.2 84.2,123.9 81.3,118.1 77.5,118.1 82.7,127.1 
		82.7,134.8 	"/>
	<polygon class="st0" points="47.4,118.2 44.1,118.2 44.1,134.8 52,134.8 52,131.9 47.4,131.9 	"/>
	<polygon class="st0" points="58.7,130.3 58.7,118.2 55.4,118.2 55.4,130.3 55.4,130.3 55.4,134.8 58.7,134.8 	"/>
	<path class="st0" d="M20.7,123.3c0-3.8-2.3-5.1-5.7-5.1h-4.4v12.1v4.5h3.2v-4.5v-1.7h1.6C18.8,128.6,20.7,126.8,20.7,123.3z
		 M14.4,125.9h-0.7v-5l0,0h0.6c1.8,0,3,0.3,3,2.4S16.3,125.9,14.4,125.9z"/>
	<path class="st0" d="M74.3,73.9l4.1,6.7h3.9l-4.7-7c2.2-0.4,3.4-2.5,3.4-4.6c0-3.5-2.3-5-5.5-5h-4.4v16.6h3.2V73.9z M74.4,66.6h0.4
		c1.7,0,3,0.4,3,2.4s-1.2,2.5-3,2.5h-0.4V66.6z"/>
	<polygon class="st0" points="88,93.8 88,91 79.4,91 79.4,107.6 88,107.6 88,104.8 82.6,104.8 82.6,100.3 87.8,100.3 87.8,97.5 
		82.6,97.5 82.6,93.9 	"/>
	<path class="st0" d="M54.1,65.4L54.1,65.4C54.1,65.4,54.2,65.4,54.1,65.4L54.1,65.4z"/>
	<polygon class="st0" points="75.8,91 65.9,91 65.9,93.9 69.2,93.9 69.2,107.7 72.5,107.7 72.5,93.9 72.5,93.8 75.8,93.8 	"/>
	<polygon class="st0" points="60.9,80.6 64.1,80.6 64.1,66.8 64.2,66.8 67.5,66.8 67.5,64 57.6,64 57.6,66.8 60.9,66.8 	"/>
	<path class="st0" d="M118.4,99.5c-0.1,4.6,3.5,8.5,8.1,8.6l0,0c1.3,0,2.6-0.4,3.8-1v-3.8c-0.9,1.1-2.3,1.7-3.7,1.8
		c-3,0-4.9-2.8-4.9-5.6c0-2.8,1.8-5.7,4.9-5.7c1.4,0,2.8,0.7,3.7,1.8v-3.8c-1.1-0.6-2.4-1-3.7-1C121.8,90.6,118.4,94.8,118.4,99.5z"
		/>
	<rect x="114.3" y="64" class="st0" width="3.2" height="16.6"/>
	<path class="st0" d="M127.4,63.6l-6.5,17h3.4l1.4-3.5h5.8l1.3,3.5h3.5l-6.3-17H127.4z M126.6,74.4l1.8-6l2.1,6H126.6z"/>
	<polygon class="st0" points="150.7,64 150.7,75.1 141.9,63.5 139.6,63.5 139.6,80.5 139.6,80.6 142.8,80.6 142.8,69.3 151.6,80.9 
		153.9,80.9 153.9,64 	"/>
	<path class="st0" d="M89.2,77.1H95l1.3,3.5h3.5l-6.3-17H91l-6.5,17h3.4L89.2,77.1z M91.9,68.4l2.1,6h-3.9L91.9,68.4z"/>
	<path class="st0" d="M59.1,90.6h-2.5l-6.5,17h3.4l1.4-3.5h5.8l1.3,3.5h3.5L59.1,90.6z M59.8,101.5h-3.9l1.8-6L59.8,101.5
		L59.8,101.5z"/>
	<path class="st0" d="M107.2,99.2v-0.4h-7.1v2.6h3.5c-0.1,2.1-1.7,3.7-3.8,3.8c-3.1,0-4.7-3.1-4.7-5.8s1.5-5.9,4.7-5.9
		c1.7,0,3.2,1.1,3.8,2.6l2.9-1.5c-1.2-2.5-3.8-4.1-6.6-4c-5,0-8.1,4.1-8.1,8.8c0,4.6,3.1,8.7,7.9,8.7
		C104.8,108.1,107.2,103.9,107.2,99.2z"/>
	<path class="st0" d="M13.9,77.1h5.8l1.3,3.5h3.5l-6.3-17h-2.5l-6.5,17h3.4L13.9,77.1z M16.7,68.4l2.1,6h-3.9L16.7,68.4z"/>
	<polygon class="st0" points="29.9,107.7 29.9,93.9 33.2,93.9 33.2,91.1 23.3,91.1 23.3,93.9 26.6,93.9 26.6,107.7 	"/>
	<path class="st0" d="M15.1,105.3C15,105.3,15,105.3,15.1,105.3c-1.5-0.1-2.7-1.1-3.1-2.4l-2.1,2c1,1.9,2.9,3.2,5.1,3.2
		c3.4,0,5.5-2.3,5.5-5.7c0-5.6-6.6-4.4-6.6-7.2c0.1-1.1,0.9-1.9,2-1.9c1,0,1.9,0.5,2.5,1.4l1.5-2.2l0,0c-1.2-1.2-2.8-1.8-4.5-1.8
		c-2.7,0-4.8,2.1-4.8,4.8c0,0.1,0,0.1,0,0.2c0,2.6,1.6,3.6,3.7,4.5c1.3,0.5,2.9,1,2.9,2.7C17.2,104.1,16.3,105.2,15.1,105.3z"/>
	<path class="st0" d="M33.9,81c4.4,0,6.2-3.1,6.2-7.1V64h-3.2v9.3c0,2-0.2,4.9-2.9,4.9s-2.9-2.9-2.9-4.9V64h-3.2v9.9l0,0
		C27.7,77.9,29.4,81,33.9,81z"/>
	<polygon class="st0" points="106.3,64 106.3,64 103.1,64 103.1,80.6 110.9,80.6 110.9,77.7 106.3,77.7 	"/>
	<path class="st0" d="M49.3,78.2L49.3,78.2c-1.5-0.1-2.7-1.1-3.1-2.4l-2.1,2c1,1.9,2.9,3.2,5.1,3.2c3.4,0,5.5-2.4,5.5-5.7
		c0-5.6-6.6-4.4-6.6-7.2c0.1-1.1,0.9-1.9,2-1.9c1,0,1.9,0.5,2.5,1.4l1.5-2.2c-1.2-1.1-2.8-1.8-4.5-1.8c-2.7,0-4.8,2.1-4.8,4.8
		c0,0.1,0,0.1,0,0.2c0,2.6,1.6,3.7,3.7,4.5c1.3,0.5,2.9,1,2.9,2.7C51.5,77,50.6,78.1,49.3,78.2z"/>
	<rect x="111.2" y="91.1" class="st0" width="3.2" height="16.6"/>
	<path class="st0" d="M36.9,107.7h3.2V101l4.1,6.7h3.9l-4.7-7l0,0c2.2-0.4,3.4-2.5,3.4-4.6c0-3.5-2.3-5-5.5-5H37v16.6H36.9z
		 M40.1,93.7h0.4c1.7,0,3,0.4,3,2.4s-1.2,2.5-3,2.5h-0.4V93.7z"/>
</g>
</svg>
